<?xml version="1.0" encoding="utf-8"?>
<!-- Generator: Adobe Illustrator 17.0.0, SVG Export Plug-In . SVG Version: 6.00 Build 0)  -->
<!DOCTYPE svg PUBLIC "-//W3C//DTD SVG 1.1//EN" "http://www.w3.org/Graphics/SVG/1.1/DTD/svg11.dtd">
<svg version="1.1" id="Calque_1" xmlns="http://www.w3.org/2000/svg" xmlns:xlink="http://www.w3.org/1999/xlink" x="0px" y="0px"
	 width="714.758px" height="175.157px" viewBox="0 0 714.758 175.157" enable-background="new 0 0 714.758 175.157"
	 xml:space="preserve">
<g>
	<g>
		<g>
			
				<linearGradient id="SVGID_1_" gradientUnits="userSpaceOnUse" x1="559.7571" y1="91.1125" x2="13.2714" y2="91.1125" gradientTransform="matrix(1 0 0 1 -10 0)">
				<stop  offset="0" style="stop-color:#FF8B00"/>
				<stop  offset="0.1463" style="stop-color:#FF7300"/>
				<stop  offset="0.3664" style="stop-color:#FF5600"/>
				<stop  offset="0.5845" style="stop-color:#FF4100"/>
				<stop  offset="0.7976" style="stop-color:#FF3400"/>
				<stop  offset="1" style="stop-color:#FF3000"/>
			</linearGradient>
			<path fill-rule="evenodd" clip-rule="evenodd" fill="url(#SVGID_1_)" d="M434.119,147.157c-2.104,2.177-4.326,4.24-6.651,6.184
				c97.777,1.61,193.704,6.72,287.29,15.04C624.49,156.876,530.626,149.623,434.119,147.157z M6.058,168.381
				c101.363-9.012,205.476-14.253,311.706-15.364c-2.369-2.005-4.631-4.133-6.768-6.381
				C205.93,148.432,103.886,155.913,6.058,168.381z"/>
		</g>
	</g>
	
		<linearGradient id="SVGID_2_" gradientUnits="userSpaceOnUse" x1="-1486.7775" y1="-193.0301" x2="-1594.5988" y2="-300.8522" gradientTransform="matrix(0.4685 0.8835 -0.8835 0.4685 876.8649 1563.4449)">
		<stop  offset="0" style="stop-color:#FF0000"/>
		<stop  offset="0.1683" style="stop-color:#FF1F00"/>
		<stop  offset="0.4249" style="stop-color:#FF4800"/>
		<stop  offset="0.6581" style="stop-color:#FF6600"/>
		<stop  offset="0.8576" style="stop-color:#FF7900"/>
		<stop  offset="1" style="stop-color:#FF7F00"/>
	</linearGradient>
	<path fill="url(#SVGID_2_)" d="M441.338,51.564c-20.061-37.849-67.017-52.26-104.861-32.192
		c-37.857,20.067-52.262,67.018-32.191,104.864c20.068,37.847,67.027,52.258,104.868,32.194
		C447.008,136.359,461.406,89.4,441.338,51.564z M317.033,101.8c-7.675-30.809,11.069-62.006,41.874-69.68
		c30.809-7.68,62.01,11.065,69.685,41.873c7.677,30.809-11.073,62-41.866,69.679C355.914,151.349,324.714,132.606,317.033,101.8z"/>
	<path fill="#FFFFFF" d="M407.033,111.175L407.033,111.175h-21.761l7.096-67.219h-17.676l-16.186,5.812
		c-2.85,1.01-4.91,4.414-5.257,7.709l-1.461,13.772l16.006-6.003l-4.856,45.931h-12.698c-2.151,0-3.96,1.571-4.178,3.686h-0.007
		l-1.491,14.112h28.948C387.547,128.973,399.82,121.926,407.033,111.175z"/>
	<path fill="#FFFFFF" d="M99.092,54.262H85.256l-20.62,26.936L44.008,54.262H30.176c-2.331,0-4.217,1.887-4.217,4.217v70.494h17.249
		V80.107l21.428,27.481L86.056,80.11v48.863h17.256V58.479C103.312,56.149,101.419,54.262,99.092,54.262z M266.863,43.955
		c-2.321,0-4.211,1.889-4.211,4.218v11.588h17.256V43.955H266.863z M147.295,67.388h-4.5c-24.834,0-29.295,8.753-29.295,31.663
		c0,23.438,5.338,31.424,29.295,31.424h4.5c17.658,0,25.195-4.35,27.939-16.029l-16.548-3.924c-1.09,4.71-3.918,6.391-11.149,6.391
		h-4.988c-9.784,0-11.522-3.063-11.763-12.593h45.692c0.074-1.665,0.11-3.413,0.11-5.269
		C176.587,76.141,172.126,67.388,147.295,67.388z M130.759,92.113c0.173-9.057,1.825-11.159,11.615-11.159h5.342
		c9.78,0,11.436,2.102,11.609,11.159H130.759z M231.468,48.172V73.57l-0.003-0.005c0,0-1.478-6.177-18.711-6.177
		c-21.334,0-27.11,8.753-27.11,31.663s5.775,31.661,27.11,31.661c17.233,0,18.711-7.492,18.711-7.492l0.003-0.007v5.759h17.249
		V43.955h-13.039C233.348,43.955,231.468,45.84,231.468,48.172z M231.468,98.544c0,12.043-1.877,18.369-12.682,18.369h-4.092
		c-10.801,0-11.795-3.703-11.795-15.744v-8.53c0.112-9.515,1.639-11.686,11.622-11.686h4.441c9.986,0,12.387,4.8,12.506,14.31
		V98.544z M262.653,128.973h13.033c2.333,0,4.223-1.889,4.223-4.215V68.891h-17.256V128.973z"/>
	<g>
		
			<linearGradient id="SVGID_3_" gradientUnits="userSpaceOnUse" x1="431.5677" y1="-682.7235" x2="314.0503" y2="-682.7235" gradientTransform="matrix(1 0 0 -1 0 -635.0633)">
			<stop  offset="0" style="stop-color:#FF7F00"/>
			<stop  offset="1" style="stop-color:#FF4000"/>
		</linearGradient>
		<path fill="url(#SVGID_3_)" d="M431.572,87.848c0-32.453-26.304-58.759-58.755-58.759c-32.457,0-58.77,26.306-58.77,58.759
			c0,0.016,0.003,0.033,0.003,0.051h-21.719c0-44.449,36.028-80.479,80.486-80.479c44.446,0,80.49,36.03,80.49,80.479h-21.74
			C431.567,87.881,431.572,87.864,431.572,87.848z"/>
		
			<linearGradient id="SVGID_4_" gradientUnits="userSpaceOnUse" x1="314.0503" y1="-763.2037" x2="431.5677" y2="-763.2037" gradientTransform="matrix(1 0 0 -1 0 -635.0633)">
			<stop  offset="0" style="stop-color:#FF4000"/>
			<stop  offset="1" style="stop-color:#FF0000"/>
		</linearGradient>
		<path fill="url(#SVGID_4_)" d="M372.817,146.602c32.432,0,58.722-26.276,58.751-58.703h21.74c0,44.45-36.045,80.482-80.49,80.482
			c-44.458,0-80.486-36.031-80.486-80.482h21.719C314.079,120.326,340.379,146.602,372.817,146.602z"/>
	</g>
</g>
<g>
	<path fill="#FFFFFF" d="M502.693,86.664c-9.562-2.168-14.342,4.678-14.342,20.421v23.16h-13.302V73.545h12.573
		c0,2.852-0.309,7.416-0.931,11.408h0.206c2.493-7.186,7.485-13.462,16.419-12.663L502.693,86.664z"/>
	<path fill="#FFFFFF" d="M537.705,130.245c0-3.309,0.107-6.618,0.521-9.585l-0.103-0.114c-2.495,6.39-8.832,10.839-16.523,10.839
		c-9.355,0-14.758-5.817-14.758-14.944c0-13.577,12.261-20.764,29.825-20.764v-3.08c0-5.933-2.596-9.013-10.078-9.013
		c-4.676,0-10.914,1.711-15.279,4.449l-1.141-12.207c5.197-2.053,11.847-3.537,18.497-3.537c16.629,0,21.305,7.416,21.305,19.737
		v23.615c0,4.564,0.106,9.926,0.311,14.603H537.705z M536.667,105.146c-14.031,0-17.146,4.45-17.146,9.014
		c0,3.651,2.285,6.047,6.129,6.047c6.547,0,11.017-6.846,11.017-13.691V105.146z"/>
	<path fill="#FFFFFF" d="M595.695,130.245c0-2.739,0.206-6.39,0.623-9.47h-0.208c-2.703,6.275-8.417,10.725-16.313,10.725
		c-12.577,0-18.812-10.383-18.812-26.583c0-19.166,10.185-32.4,27.335-32.4c2.182,0,4.258,0.114,6.547,0.457V46.961h13.197v83.284
		H595.695z M594.865,84.952c-2.392-0.571-4.679-0.913-6.965-0.913c-7.588,0-12.991,5.248-12.991,19.28
		c0,10.611,2.806,16.087,8.836,16.087c6.961,0,11.12-8.9,11.12-18.597V84.952z"/>
	<path fill="#FFFFFF" d="M629.158,66.242c-4.573,0-8.209-3.993-8.209-8.898c0-4.792,3.635-8.785,8.209-8.785
		s8.314,3.879,8.314,8.785C637.473,62.249,633.732,66.242,629.158,66.242z M622.509,130.245V73.545h13.299v56.701H622.509z"/>
	<path fill="#FFFFFF" d="M670.518,131.385c-14.653,0-24.108-8.328-24.108-28.521c0-17.683,10.703-30.46,26.397-30.46
		c14.651,0,24.111,8.898,24.111,28.406C696.918,118.609,686.003,131.385,670.518,131.385z M671.872,84.724
		c-5.924,0-11.744,5.021-11.744,16.657c0,11.638,3.844,17.57,11.538,17.57c6.547,0,11.534-5.819,11.534-17.342
		C683.2,90.657,679.665,84.724,671.872,84.724z"/>
</g>
</svg>
