<svg xmlns="http://www.w3.org/2000/svg" width="30" height="30" viewBox="0 0 30 30">
    <path fill="#6936D3" fill-rule="evenodd" d="M25.9 15.738c-2.12 0-2.42 1.295-2.42 2.228 0 .814.12 1.626.24 2.44.119.812.239 1.656.239 2.468 0 3.042-1.852 4.126-4.331 4.126H19v-1.656h.537c1.673 0 2.36-.934 2.36-2.62 0-.723-.09-1.415-.209-2.169a13.878 13.878 0 0 1-.209-2.288c-.029-1.927.807-2.951 2.152-3.282v-.06c-1.345-.362-2.181-1.325-2.152-3.252 0-.813.09-1.536.21-2.289.119-.722.209-1.446.209-2.138 0-1.626-.598-2.59-2.36-2.59H19V3h.628c2.539 0 4.33 1.174 4.33 3.945 0 .843-.12 1.657-.238 2.499-.12.844-.24 1.686-.24 2.53 0 1.054.3 2.228 2.42 2.228v1.536zM5.886 27L4 26.05 15.433 3l1.885.95L5.885 27z" opacity=".5"/>
</svg>
