<svg xmlns="http://www.w3.org/2000/svg" width="20" height="30" viewBox="0 0 20 30">
    <path fill="#6936D3" fill-rule="evenodd" d="M7 15.738c2.152 0 2.455 1.295 2.455 2.228 0 .814-.122 1.626-.243 2.44-.12.812-.242 1.656-.242 2.468 0 3.042 1.878 4.126 4.393 4.126H14v-1.656h-.545c-1.697 0-2.394-.934-2.394-2.62 0-.723.09-1.415.212-2.169.121-.721.212-1.474.212-2.288.03-1.927-.818-2.951-2.183-3.282v-.06c1.365-.362 2.213-1.325 2.183-3.252 0-.813-.091-1.536-.212-2.289-.121-.722-.212-1.446-.212-2.138 0-1.626.606-2.59 2.394-2.59H14V3h-.637C10.788 3 8.97 4.174 8.97 6.945c0 .843.122 1.657.242 2.499.121.844.243 1.686.243 2.53 0 1.054-.303 2.228-2.455 2.228v1.536z" opacity=".5"/>
</svg>
