<svg xmlns="http://www.w3.org/2000/svg" width="20" height="20" viewBox="0 0 20 20">
    <path fill="#6936D3" fill-rule="nonzero" d="M13.164 7.052a.702.702 0 1 1-.703-1.216l4.75-2.742a.704.704 0 0 1 .96.256.704.704 0 0 1-.257.96l-4.75 2.742zm5.133 1.853c.387 0 .703.316.703.703a.705.705 0 0 1-.703.703h-5.485a.705.705 0 0 1-.703-.703c0-.387.317-.703.704-.703h5.484zm-7.949-4.106c.2.13.32.351.316.59v8.438a.702.702 0 0 1-.987.643l-4.258-1.898h-.376v2.661a.705.705 0 0 1-.703.703.705.705 0 0 1-.703-.703v-2.661H1.703A.705.705 0 0 1 1 11.869V7.348c0-.387.316-.704.703-.704h3.72L9.68 4.746a.696.696 0 0 1 .668.053zm-1.086 7.945V6.472L5.855 7.991a.713.713 0 0 1-.285.06H2.406v3.115H5.57c.099 0 .194.02.285.06l3.407 1.518zm8.652 2.162a.702.702 0 1 1-.703 1.216l-4.75-2.742a.702.702 0 1 1 .703-1.216l4.75 2.742z"/>
</svg>
