<svg xmlns="http://www.w3.org/2000/svg" width="20" height="20" viewBox="0 0 20 20">
    <path fill="#6936D3" fill-rule="nonzero" d="M15.93 5.121A3.071 3.071 0 0 1 19 8.188v6.477a3.074 3.074 0 0 1-3.07 3.07H5.07A3.074 3.074 0 0 1 2 14.666V6.07A3.074 3.074 0 0 1 5.07 3h4.948c.525 0 .949.423.949.949 0 .647.526 1.172 1.172 1.172h3.79zM9.967 4H5.07C3.93 4 3 4.93 3 6.07v8.595c0 1.14.93 2.07 2.07 2.07h10.86c1.14 0 2.07-.93 2.07-2.07V8.188c0-1.14-.93-2.067-2.07-2.067h-3.79A2.174 2.174 0 0 1 9.966 4zm-.747.898H5.07c-.647 0-1.172.526-1.172 1.172v8.592c0 .647.526 1.173 1.172 1.173h10.86c.647 0 1.172-.527 1.172-1.173v-6.47c0-.647-.526-1.173-1.172-1.173h-3.79a3.076 3.076 0 0 1-2.92-2.121zm8.882 9.764a2.174 2.174 0 0 1-2.172 2.173H5.07a2.174 2.174 0 0 1-2.172-2.173V6.07c0-1.198.973-2.172 2.172-2.172h4.958l.073.413a2.074 2.074 0 0 0 2.038 1.708h3.79c1.199 0 2.173.973 2.173 2.173v6.47z"/>
</svg>
