<svg xmlns="http://www.w3.org/2000/svg" width="20" height="20" viewBox="0 0 20 20">
    <path fill="#6936D3" fill-rule="nonzero" d="M17.534 4.875h-4.253v-.469c0-.775-.63-1.406-1.406-1.406h-3.75c-.775 0-1.406.63-1.406 1.406v.469h-4.25A.47.47 0 0 0 2 5.344v10.312c0 .776.63 1.406 1.406 1.406h13.188c.775 0 1.406-.63 1.406-1.406V5.354v-.002c-.018-.308-.207-.475-.466-.477zm-9.878-.469a.47.47 0 0 1 .469-.468h3.75a.47.47 0 0 1 .469.468v.469H7.656v-.469zm9.225 1.407l-1.456 4.366a.468.468 0 0 1-.444.321h-2.637v-.469a.469.469 0 0 0-.469-.469h-3.75a.469.469 0 0 0-.469.47v.468H5.02a.468.468 0 0 1-.444-.32L3.119 5.812h13.762zM11.406 10.5v.938H8.594V10.5h2.812zm5.656 5.156a.47.47 0 0 1-.468.469H3.406a.47.47 0 0 1-.469-.469V8.232l.748 2.244c.192.575.728.961 1.334.961h2.637v.47c0 .258.21.468.469.468h3.75c.259 0 .469-.21.469-.469v-.469h2.637c.606 0 1.142-.386 1.334-.961l.747-2.244v7.424z"/>
</svg>
