<svg xmlns="http://www.w3.org/2000/svg" width="20" height="20" viewBox="0 0 20 20">
    <g fill="#6936D3" fill-rule="evenodd">
        <path fill-rule="nonzero" d="M16.785 1H6.238a2.217 2.217 0 0 0-2.215 2.215V14.57h-2.32a.703.703 0 0 0-.703.703v1.512C1 18.006 1.994 19 3.215 19h10.547a2.217 2.217 0 0 0 2.215-2.215V5.43h2.32A.703.703 0 0 0 19 4.727V3.215A2.217 2.217 0 0 0 16.785 1zM3.215 17.594a.81.81 0 0 1-.809-.809v-.808h9.14v.808c0 .285.058.566.154.809H3.215zM14.57 3.214v13.571a.81.81 0 0 1-1.617 0v-1.512a.703.703 0 0 0-.703-.703H5.43V3.215a.81.81 0 0 1 .808-.809h8.485a2.237 2.237 0 0 0-.153.809zm3.024.81h-1.617v-.81a.81.81 0 0 1 1.617 0v.81z"/>
        <path d="M9.865 4.945a.529.529 0 1 1 0 1.058H7.132a.529.529 0 1 1 0-1.058h2.733zm3.174 2.116a.529.529 0 1 1 0 1.058H7.132a.529.529 0 1 1 0-1.058h5.907zm0 2.116a.529.529 0 1 1 0 1.058H7.132a.529.529 0 1 1 0-1.058h5.907zm0 2.117a.529.529 0 1 1 0 1.058H7.132a.529.529 0 1 1 0-1.058h5.907z"/>
    </g>
</svg>
