<svg xmlns="http://www.w3.org/2000/svg" width="20" height="20" viewBox="0 0 20 20">
    <path fill="#6936D3" fill-rule="nonzero" d="M18.168 1c.46 0 .832.372.832.832v5.27a.831.831 0 1 1-1.663 0V3.839l-7.974 7.974a.83.83 0 0 1-1.176 0 .832.832 0 0 1 0-1.176l7.974-7.974h-3.263a.831.831 0 1 1 0-1.663h5.27zm-3.401 9.636c.459 0 .831.372.831.831v6.302c0 .46-.372.832-.831.832H1.832A.831.831 0 0 1 1 17.769V4.834c0-.46.372-.832.832-.832h6.793a.831.831 0 1 1 0 1.664H2.663v11.272h11.272v-5.47c0-.46.372-.832.832-.832z"/>
</svg>
