<svg xmlns="http://www.w3.org/2000/svg" width="20" height="20" viewBox="0 0 20 20">
    <path fill="#6936D3" fill-rule="nonzero" d="M18.437 9.88c.66.544.737 1.504.246 2.158l-2.531 3.375a3.709 3.709 0 0 1-2.953 1.477H6.967a1.58 1.58 0 0 1-.874 1.47l-1.166.583a.528.528 0 0 1-.707-.236L1.056 12.38a.528.528 0 0 1 .236-.708l1.166-.583c.46-.23.993-.223 1.45.019l1.016-.895a3.699 3.699 0 0 1 4.864-.012c.365.28.435.36.645.36h2.766c.709 0 1.31.47 1.51 1.114l1.55-1.664c.625-.67 1.576-.627 2.178-.131zM5.62 17.417a.527.527 0 0 0 .236-.707l-2.22-4.442a.527.527 0 0 0-.708-.236l-.694.348 2.692 5.384.694-.347zm12.218-6.012a.528.528 0 0 0-.808-.675l-2.321 2.492c-.299.32-.72.504-1.158.504h-3.047a.528.528 0 0 1 0-1.055H13.2a.528.528 0 0 0 0-1.054h-2.766c-.38 0-.743-.098-1.328-.613a2.643 2.643 0 0 0-3.484 0l-.998.879L6.6 15.835h6.6c.825 0 1.614-.394 2.109-1.055l2.531-3.375zm-5.751-6.807a3.214 3.214 0 0 1 1.638 2.8v.527a.528.528 0 0 1-.527.528H7.89a.528.528 0 0 1-.527-.528v-.527c0-1.217.693-2.255 1.658-2.795a2.07 2.07 0 0 1-.603-1.459C8.418 1.982 9.4 1 10.562 1c1.171 0 2.11.984 2.11 2.144a2.1 2.1 0 0 1-.584 1.454zm-1.526-2.543c-.58 0-1.09.509-1.09 1.09 0 .571.5 1.054 1.09 1.054.582 0 1.055-.473 1.055-1.055 0-.59-.483-1.09-1.055-1.09zM8.418 7.398h4.253c0-1.183-.946-2.144-2.109-2.144-1.162 0-2.144.982-2.144 2.144z"/>
</svg>
