<svg xmlns="http://www.w3.org/2000/svg" width="20" height="20" viewBox="0 0 20 20">
    <path fill="#23CA62" fill-rule="evenodd" d="M14.124 11.787c-.224-.112-1.325-.65-1.53-.725-.206-.075-.355-.112-.504.111-.15.223-.579.726-.71.874-.13.149-.26.168-.485.056-.224-.112-.945-.347-1.8-1.106-.666-.591-1.116-1.321-1.246-1.544-.13-.223-.014-.344.098-.455.1-.1.224-.26.336-.39.112-.13.15-.224.224-.372.074-.149.037-.28-.019-.39-.056-.112-.504-1.21-.69-1.656-.182-.434-.367-.375-.504-.382a9.024 9.024 0 0 0-.43-.008.824.824 0 0 0-.597.279c-.205.223-.783.762-.783 1.86 0 1.096.802 2.156.914 2.305.112.149 1.58 2.4 3.826 3.365.534.23.951.367 1.276.47.537.17 1.025.145 1.41.088.43-.064 1.326-.54 1.512-1.06.187-.52.187-.967.13-1.06-.055-.093-.204-.148-.428-.26m-4.086 5.552h-.003a7.465 7.465 0 0 1-3.792-1.033l-.272-.16-2.82.735.753-2.735-.177-.28A7.37 7.37 0 0 1 2.588 9.92c.002-4.088 3.344-7.414 7.453-7.414 1.99.001 3.86.773 5.266 2.175a7.352 7.352 0 0 1 2.18 5.245c-.002 4.088-3.344 7.413-7.45 7.413m6.34-13.723A8.925 8.925 0 0 0 10.037 1c-4.94 0-8.96 4.001-8.962 8.92 0 1.571.412 3.106 1.196 4.458L1 19.001l4.751-1.24a8.988 8.988 0 0 0 4.283 1.085h.004c4.94 0 8.96-4.002 8.962-8.92 0-2.383-.93-4.624-2.623-6.31"/>
</svg>
